<?xml version="1.0" encoding="UTF-8"?>
<svg viewBox="0 0 500 500" xmlns="http://www.w3.org/2000/svg"><defs><radialGradient id="g1732985003_bg" cx="38%" cy="32%" r="90%"><stop offset="0%" stop-color="rgb(238, 235, 228)"/><stop offset="55%" stop-color="#f4efe4"/><stop offset="100%" stop-color="#f4efe4"/></radialGradient><radialGradient id="g1732985003_lit" cx="36%" cy="30%" r="78%"><stop offset="0%" stop-color="rgba(31, 111, 235, 0.168)"/><stop offset="55%" stop-color="rgba(31, 111, 235, 0.048)"/><stop offset="100%" stop-color="rgba(31, 111, 235, 0)"/></radialGradient><clipPath id="g1732985003_clip"><circle cx="250" cy="250" r="168"/></clipPath><clipPath id="qg_disc"><circle cx="228" cy="250" r="207"/></clipPath></defs><circle cx="228" cy="250" r="207" fill="url(#g1732985003_bg)"/><g clip-path="url(#qg_disc)"><circle cx="250" cy="250" r="184" fill="#1f6feb" opacity="0.04"/><g transform="rotate(-7 250 250)"><path d="M 130.5274226711539 380.08750211791164 A 145.84908645689342 23.33585383310295 0 0 1 130.52742267115383 353.31771035631147" fill="none" stroke="#1f6feb" stroke-width="3.69" stroke-linecap="round" opacity="0.6"/><path d="M 105.4297987398842 377.98446199552495 A 160.84908645689342 25.735853833102947 0 0 1 105.4297987398842 355.4207504786981" fill="none" stroke="#1f6feb" stroke-width="2.88" stroke-linecap="round" opacity="0.34"/><path d="M 81.83468228951781 374.9287337861256 A 175.84908645689342 28.135853833102946 0 0 1 81.83468228951781 358.4764786880975" fill="none" stroke="#1f6feb" stroke-width="2.07" stroke-linecap="round" opacity="0.16"/><path d="M 100.20300883100563 324.24162126553847 A 182.8683602920326 29.25893764672522 0 0 1 100.20300883100555 290.67714689188625" fill="none" stroke="#1f6feb" stroke-width="3.69" stroke-linecap="round" opacity="0.6"/><path d="M 72.15709581854259 321.33774888103113 A 197.8683602920326 31.658937646725217 0 0 1 72.15709581854256 293.58101927639353" fill="none" stroke="#1f6feb" stroke-width="2.88" stroke-linecap="round" opacity="0.34"/><path d="M 46.432974658676244 317.4172537395308 A 212.8683602920326 34.05893764672522 0 0 1 46.432974658676244 297.5015144178939" fill="none" stroke="#1f6feb" stroke-width="2.07" stroke-linecap="round" opacity="0.16"/><path d="M 91.90365545222463 267.7120403545203 A 193 30.88 0 0 1 91.90365545222454 232.2879596454797" fill="none" stroke="#1f6feb" stroke-width="3.69" stroke-linecap="round" opacity="0.6"/><path d="M 63.05083836977326 264.5889917651405 A 208 33.28 0 0 1 63.05083836977323 235.4110082348595" fill="none" stroke="#1f6feb" stroke-width="2.88" stroke-linecap="round" opacity="0.34"/><path d="M 36.7440394202431 260.43182242450723 A 223 35.68 0 0 1 36.74403942024307 239.56817757549277" fill="none" stroke="#1f6feb" stroke-width="2.07" stroke-linecap="round" opacity="0.16"/><path d="M 100.20300883100563 209.3228531081138 A 182.8683602920326 29.25893764672522 0 0 1 100.20300883100555 175.75837873446156" fill="none" stroke="#1f6feb" stroke-width="3.69" stroke-linecap="round" opacity="0.6"/><path d="M 72.15709581854259 206.4189807236065 A 197.8683602920326 31.658937646725217 0 0 1 72.15709581854256 178.66225111896884" fill="none" stroke="#1f6feb" stroke-width="2.88" stroke-linecap="round" opacity="0.34"/><path d="M 46.432974658676244 202.49848558210613 A 212.8683602920326 34.05893764672522 0 0 1 46.432974658676244 182.58274626046924" fill="none" stroke="#1f6feb" stroke-width="2.07" stroke-linecap="round" opacity="0.16"/><path d="M 130.5274226711539 146.68228964368856 A 145.84908645689342 23.33585383310295 0 0 1 130.52742267115383 119.91249788208839" fill="none" stroke="#1f6feb" stroke-width="3.69" stroke-linecap="round" opacity="0.6"/><path d="M 105.4297987398842 144.57924952130188 A 160.84908645689342 25.735853833102947 0 0 1 105.4297987398842 122.01553800447508" fill="none" stroke="#1f6feb" stroke-width="2.88" stroke-linecap="round" opacity="0.34"/><path d="M 81.83468228951781 141.52352131190253 A 175.84908645689342 28.135853833102946 0 0 1 81.83468228951781 125.07126621387442" fill="none" stroke="#1f6feb" stroke-width="2.07" stroke-linecap="round" opacity="0.16"/><circle cx="250" cy="250" r="168" fill="url(#g1732985003_lit)"/><g clip-path="url(#g1732985003_clip)"><line x1="250" y1="82" x2="250" y2="418" stroke="#1f6feb" stroke-width="3.5" opacity="0.79"/><ellipse cx="250" cy="250" rx="50.4" ry="168" fill="none" stroke="#1f6feb" stroke-width="3.5" opacity="0.79"/><ellipse cx="250" cy="250" rx="104.16" ry="168" fill="none" stroke="#1f6feb" stroke-width="3.5" opacity="0.79"/><ellipse cx="250" cy="250" rx="168" ry="26.88" fill="none" stroke="#1f6feb" stroke-width="3.5" opacity="0.79"/><ellipse cx="250" cy="398.3351956002997" rx="78.87122254802966" ry="12.619395607684746" fill="none" stroke="#1f6feb" stroke-width="3.5" opacity="0.79"/><ellipse cx="250" cy="353.43112785471055" rx="132.3858066059293" ry="21.18172905694869" fill="none" stroke="#1f6feb" stroke-width="3.5" opacity="0.79"/><ellipse cx="250" cy="296.3070757772559" rx="161.49196491763757" ry="25.838714386822012" fill="none" stroke="#1f6feb" stroke-width="3.5" opacity="0.79"/><ellipse cx="250" cy="203.69292422274413" rx="161.49196491763757" ry="25.838714386822012" fill="none" stroke="#1f6feb" stroke-width="3.5" opacity="0.79"/><ellipse cx="250" cy="146.56887214528942" rx="132.3858066059293" ry="21.18172905694869" fill="none" stroke="#1f6feb" stroke-width="3.5" opacity="0.79"/><ellipse cx="250" cy="101.66480439970027" rx="78.87122254802966" ry="12.619395607684746" fill="none" stroke="#1f6feb" stroke-width="3.5" opacity="0.79"/></g></g><circle cx="250" cy="250" r="168" fill="none" stroke="#1f6feb" stroke-width="5"/><path d="M 92.1316397079674 192.54061592128767 A 168 168 0 0 1 307.4593840787122 92.13163970796737" fill="none" stroke="rgba(31, 111, 235, 0.95)" stroke-width="6.5" stroke-linecap="round" opacity="0.4"/></g></svg>
