<svg viewBox="0 0 512 512" xmlns="http://www.w3.org/2000/svg">
  <defs>
    <radialGradient id="bg" cx="38%" cy="32%" r="90%">
      <stop offset="0%" stop-color="#eeebe4"/>
      <stop offset="55%" stop-color="#f4efe4"/>
      <stop offset="100%" stop-color="#f4efe4"/>
    </radialGradient>
    <radialGradient id="lit" cx="36%" cy="30%" r="78%">
      <stop offset="0%" stop-color="rgba(31,111,235,0.17)"/>
      <stop offset="55%" stop-color="rgba(31,111,235,0.05)"/>
      <stop offset="100%" stop-color="rgba(31,111,235,0)"/>
    </radialGradient>
    <clipPath id="gc">
      <circle cx="256" cy="256" r="168"/>
    </clipPath>
  </defs>
  <rect width="512" height="512" rx="115" fill="url(#bg)"/>
  <circle cx="256" cy="256" r="184" fill="#1f6feb" opacity="0.04"/>
  <g transform="translate(6 6)" clip-path="url(#gc)">
    <line x1="250" y1="82" x2="250" y2="418" stroke="#1f6feb" stroke-width="3.5" opacity="0.79"/>
    <ellipse cx="250" cy="250" rx="50.4" ry="168" fill="none" stroke="#1f6feb" stroke-width="3.5" opacity="0.79"/>
    <ellipse cx="250" cy="250" rx="104.16" ry="168" fill="none" stroke="#1f6feb" stroke-width="3.5" opacity="0.79"/>
    <ellipse cx="250" cy="250" rx="168" ry="26.88" fill="none" stroke="#1f6feb" stroke-width="3.5" opacity="0.79"/>
    <ellipse cx="250" cy="296.31" rx="161.49" ry="25.84" fill="none" stroke="#1f6feb" stroke-width="3.5" opacity="0.79"/>
    <ellipse cx="250" cy="203.69" rx="161.49" ry="25.84" fill="none" stroke="#1f6feb" stroke-width="3.5" opacity="0.79"/>
    <ellipse cx="250" cy="353.43" rx="132.39" ry="21.18" fill="none" stroke="#1f6feb" stroke-width="3.5" opacity="0.79"/>
    <ellipse cx="250" cy="146.57" rx="132.39" ry="21.18" fill="none" stroke="#1f6feb" stroke-width="3.5" opacity="0.79"/>
    <ellipse cx="250" cy="398.34" rx="78.87" ry="12.62" fill="none" stroke="#1f6feb" stroke-width="3.5" opacity="0.79"/>
    <ellipse cx="250" cy="101.66" rx="78.87" ry="12.62" fill="none" stroke="#1f6feb" stroke-width="3.5" opacity="0.79"/>
  </g>
  <circle cx="256" cy="256" r="168" fill="url(#lit)"/>
  <circle cx="256" cy="256" r="168" fill="none" stroke="#1f6feb" stroke-width="5"/>
</svg>