<?xml version="1.0" encoding="UTF-8"?>
<svg viewBox="0 0 512 512" xmlns="http://www.w3.org/2000/svg"><defs><radialGradient id="qg_bg" cx="38%" cy="32%" r="90%"><stop offset="0%" stop-color="rgb(238, 235, 228)"/><stop offset="55%" stop-color="#f4efe4"/><stop offset="100%" stop-color="#f4efe4"/></radialGradient><radialGradient id="qg_lit" cx="36%" cy="30%" r="78%"><stop offset="0%" stop-color="rgba(31, 111, 235, 0.168)"/><stop offset="55%" stop-color="rgba(31, 111, 235, 0.048)"/><stop offset="100%" stop-color="rgba(31, 111, 235, 0)"/></radialGradient><clipPath id="qg_clip"><circle cx="256.0" cy="256.0" r="243.2"/></clipPath></defs><circle cx="256.0" cy="256.0" r="243.2" fill="url(#qg_bg)"/><g clip-path="url(#qg_clip)"><g transform="rotate(-7 256.0 256.0)"><circle cx="256.0" cy="256.0" r="243.2" fill="url(#qg_lit)"/><line x1="256.0" y1="12.8" x2="256.0" y2="499.2" stroke="#1f6feb" stroke-width="5.059" fill="none" opacity="0.79"/><ellipse cx="256.0" cy="256.0" rx="72.96" ry="243.2" stroke="#1f6feb" stroke-width="5.059" fill="none" opacity="0.79"/><ellipse cx="256.0" cy="256.0" rx="150.784" ry="243.2" stroke="#1f6feb" stroke-width="5.059" fill="none" opacity="0.79"/><ellipse cx="256.0" cy="256.0" rx="243.2" ry="38.912" stroke="#1f6feb" stroke-width="5.059" fill="none" opacity="0.79"/><ellipse cx="256.0" cy="323.035" rx="233.779" ry="37.405" stroke="#1f6feb" stroke-width="5.059" fill="none" opacity="0.79"/><ellipse cx="256.0" cy="188.965" rx="233.779" ry="37.405" stroke="#1f6feb" stroke-width="5.059" fill="none" opacity="0.79"/><ellipse cx="256.0" cy="106.271" rx="191.644" ry="30.663" stroke="#1f6feb" stroke-width="5.059" fill="none" opacity="0.79"/><ellipse cx="256.0" cy="405.729" rx="191.644" ry="30.663" stroke="#1f6feb" stroke-width="5.059" fill="none" opacity="0.79"/><ellipse cx="256.0" cy="41.267" rx="114.175" ry="18.268" stroke="#1f6feb" stroke-width="5.059" fill="none" opacity="0.79"/><ellipse cx="256.0" cy="470.733" rx="114.175" ry="18.268" stroke="#1f6feb" stroke-width="5.059" fill="none" opacity="0.79"/></g></g><circle cx="256.0" cy="256.0" r="243.2" fill="none" stroke="#1f6feb" stroke-width="7.296"/><path d="M 27.467 172.821 A 243.2 243.2 0 0 1 339.179 27.467" fill="none" stroke="rgba(31, 111, 235, 0.95)" stroke-width="9.485" stroke-linecap="round" opacity="0.4"/></svg>
